<svg xmlns="http://www.w3.org/2000/svg" viewBox="0 0 1600 1000">
<defs><linearGradient id="g" x1="0" y1="0" x2="1" y2="1"><stop stop-color="#8b9a83"/><stop offset="1" stop-color="#26312d"/></linearGradient></defs>
<rect width="1600" height="1000" fill="url(#g)"/>
<circle cx="1240" cy="170" r="120" fill="#f0d9a8" opacity=".6"/>
<path d="M0 780 Q380 620 760 760 T1600 700 V1000 H0Z" fill="#35443e"/>
<g stroke="#151914" stroke-width="18" fill="none">
<circle cx="530" cy="700" r="100"/><circle cx="760" cy="700" r="100"/><path d="M530 700l90-150 140 150-120 0-20-150"/>
<circle cx="900" cy="670" r="96"/><circle cx="1120" cy="670" r="96"/><path d="M900 670l86-145 134 145-115 0-19-145"/>
</g>
<g fill="#111"><circle cx="650" cy="475" r="34"/><rect x="620" y="510" width="60" height="145" rx="25" transform="rotate(-12 650 580)"/><circle cx="1010" cy="450" r="34"/><rect x="980" y="485" width="60" height="145" rx="25" transform="rotate(-10 1010 560)"/></g>
</svg>
